<svg xmlns="http://www.w3.org/2000/svg" width="29" height="19" viewBox="0 0 29 19"><g><g><path fill="#fff" d="M.001 1.213C.001.626.488.15 1.088.15h26.626c.6 0 1.087.477 1.087 1.064 0 .587-.487 1.064-1.087 1.064H1.088c-.6 0-1.087-.477-1.087-1.064zm0 7.98c0-.587.487-1.063 1.087-1.063h26.626c.6 0 1.087.476 1.087 1.064 0 .587-.487 1.064-1.087 1.064H1.088c-.6 0-1.087-.477-1.087-1.064zm0 7.981c0-.587.487-1.064 1.087-1.064h26.626c.6 0 1.087.477 1.087 1.064 0 .588-.487 1.065-1.087 1.065H1.088c-.6 0-1.087-.477-1.087-1.065z"/></g></g></svg>