<svg xmlns="http://www.w3.org/2000/svg" width="22" height="26" viewBox="0 0 22 26"><g><g><path fill="#fff" d="M21.72 22.38a.513.513 0 0 1-.444.256h-7.19c.035.164.052.332.052.502-.002 1.386-1.145 2.512-2.552 2.512-1.406 0-2.55-1.126-2.55-2.512 0-.17.018-.338.052-.502H1.897a.513.513 0 0 1-.445-.256.496.496 0 0 1 .007-.505l1.752-2.876a8.455 8.455 0 0 0 1.236-4.396v-2.52c0-3.18 2.154-5.875 5.1-6.742v-1.8c0-1.108.914-2.01 2.04-2.01 1.124 0 2.04.902 2.04 2.01v1.8c2.945.867 5.099 3.562 5.099 6.742v2.52c0 1.548.427 3.068 1.235 4.396l1.752 2.876a.496.496 0 0 1 .007.505zM11.586 5.05c.346 0 .687.024 1.02.071V3.541c0-.555-.457-1.005-1.02-1.005s-1.02.45-1.02 1.005v1.58a7.272 7.272 0 0 1 1.02-.072zM2.797 21.63h17.578l-1.29-2.116a9.449 9.449 0 0 1-1.38-4.912v-2.52c0-3.325-2.744-6.03-6.119-6.03-3.375 0-6.12 2.705-6.12 6.03v2.52a9.44 9.44 0 0 1-1.38 4.912zm7.26 1.507a1.52 1.52 0 0 0 1.53 1.507 1.52 1.52 0 0 0 1.53-1.507c0-.17-.03-.342-.088-.502h-2.884c-.057.16-.088.332-.088.502z"/><path fill="none" stroke="#fff" stroke-linecap="round" stroke-linejoin="round" stroke-miterlimit="20" d="M21.72 22.38a.513.513 0 0 1-.444.256h-7.19c.035.164.052.332.052.502-.002 1.386-1.145 2.512-2.552 2.512-1.406 0-2.55-1.126-2.55-2.512 0-.17.018-.338.052-.502H1.897a.513.513 0 0 1-.445-.256.496.496 0 0 1 .007-.505l1.752-2.876a8.455 8.455 0 0 0 1.236-4.396v-2.52c0-3.18 2.154-5.875 5.1-6.742v-1.8c0-1.108.914-2.01 2.04-2.01 1.124 0 2.04.902 2.04 2.01v1.8c2.945.867 5.099 3.562 5.099 6.742v2.52c0 1.548.427 3.068 1.235 4.396l1.752 2.876a.496.496 0 0 1 .007.505zM11.586 5.05c.346 0 .687.024 1.02.071V3.541c0-.555-.457-1.005-1.02-1.005s-1.02.45-1.02 1.005v1.58a7.272 7.272 0 0 1 1.02-.072zM2.797 21.63h17.578l-1.29-2.116a9.449 9.449 0 0 1-1.38-4.912v-2.52c0-3.325-2.744-6.03-6.119-6.03-3.375 0-6.12 2.705-6.12 6.03v2.52a9.44 9.44 0 0 1-1.38 4.912zm7.26 1.507a1.52 1.52 0 0 0 1.53 1.507 1.52 1.52 0 0 0 1.53-1.507c0-.17-.03-.342-.088-.502h-2.884c-.057.16-.088.332-.088.502z"/></g></g></svg>